<svg width="45" height="45" viewBox="0 0 45 45" fill="none" xmlns="http://www.w3.org/2000/svg">
<g clip-path="url(#clip0_2_4)">
<path d="M22.5 44C34.3741 44 44 34.3741 44 22.5C44 10.6259 34.3741 1 22.5 1C10.6259 1 1 10.6259 1 22.5C1 34.3741 10.6259 44 22.5 44Z" fill="white" stroke="#F13C6E" stroke-width="2"/>
<path d="M27.9057 12.5042L25.3122 12.5C22.3985 12.5 20.5155 14.4319 20.5155 17.422V19.6914H17.9078C17.6825 19.6914 17.5 19.8741 17.5 20.0994V23.3875C17.5 23.6128 17.6827 23.7953 17.9078 23.7953H20.5155V32.0922C20.5155 32.3175 20.698 32.5 20.9233 32.5H24.3256C24.5509 32.5 24.7334 32.3173 24.7334 32.0922V23.7953H27.7823C28.0077 23.7953 28.1901 23.6128 28.1901 23.3875L28.1914 20.0994C28.1914 19.9912 28.1483 19.8876 28.072 19.811C27.9956 19.7345 27.8916 19.6914 27.7834 19.6914H24.7334V17.7676C24.7334 16.843 24.9537 16.3736 26.1582 16.3736L27.9053 16.373C28.1304 16.373 28.3129 16.1903 28.3129 15.9651V12.912C28.3129 12.6871 28.1306 12.5046 27.9057 12.5042Z" fill="#F13C6E"/>
</g>
<defs>
<clipPath id="clip0_2_4">
<rect width="45" height="45" fill="white"/>
</clipPath>
</defs>
</svg>
